<svg width="19" height="22" viewBox="0 0 19 22" fill="none" xmlns="http://www.w3.org/2000/svg">
<path d="M6.03994e-06 4.5837C6.03994e-06 4.0777 0.364173 3.6663 0.813839 3.6663H3.62689C4.18528 3.6498 4.67823 3.2505 4.86823 2.6587L4.8999 2.5542L5.02128 2.145C5.09517 1.8942 5.15956 1.6753 5.25034 1.4795C5.60712 0.707301 6.2679 0.171601 7.03106 0.0341013C7.22528 1.26623e-06 7.42901 1.37687e-06 7.6644 1.37687e-06H11.3356C11.571 1.37687e-06 11.7758 1.26623e-06 11.969 0.0341013C12.7321 0.171601 13.394 0.707301 13.7497 1.4795C13.8405 1.6753 13.9048 1.8942 13.9787 2.145L14.1001 2.5542L14.1318 2.6587C14.3218 3.2505 14.9129 3.6509 15.4723 3.6663H18.1851C18.6358 3.6663 19 4.0766 19 4.5837C19 5.0897 18.6358 5.5 18.1862 5.5H0.812784C0.363117 5.5 6.03994e-06 5.0897 6.03994e-06 4.5837ZM9.34906 22H10.1798C13.0372 22 14.4653 22 15.3953 21.0507C16.3242 20.1003 16.4192 18.5427 16.6092 15.4286L16.8836 10.9395C16.9871 9.2488 17.0388 8.404 16.5722 7.8683C16.1057 7.3326 15.3193 7.3326 13.7444 7.3326H5.78445C4.21062 7.3326 3.42317 7.3326 2.95662 7.8683C2.49112 8.404 2.54284 9.2488 2.64523 10.9395L2.91967 15.4275C3.10967 18.5438 3.20467 20.1003 4.13356 21.0507C5.0614 22 6.49167 22 9.34906 22Z" fill="white"/>
</svg>
