<svg width="98" height="98" viewBox="0 0 98 98" fill="none" xmlns="http://www.w3.org/2000/svg">
<g clip-path="url(#clip0_1046_223)">
<path d="M0.012207 18.375C0.012207 15.1261 1.30283 12.0103 3.60015 9.71294C5.89747 7.41562 9.0133 6.125 12.2622 6.125H85.7622C89.0111 6.125 92.1269 7.41562 94.4243 9.71294C96.7216 12.0103 98.0122 15.1261 98.0122 18.375V79.625C98.0122 82.8739 96.7216 85.9897 94.4243 88.2871C92.1269 90.5844 89.0111 91.875 85.7622 91.875H12.2622C9.0133 91.875 5.89747 90.5844 3.60015 88.2871C1.30283 85.9897 0.012207 82.8739 0.012207 79.625V18.375ZM6.13721 73.5V79.625C6.13721 81.2495 6.78252 82.8074 7.93118 83.956C9.07984 85.1047 10.6378 85.75 12.2622 85.75H85.7622C87.3867 85.75 88.9446 85.1047 90.0932 83.956C91.2419 82.8074 91.8872 81.2495 91.8872 79.625V58.1875L68.7531 46.2621C68.1787 45.9744 67.5284 45.8746 66.8941 45.9768C66.2599 46.079 65.6739 46.3781 65.219 46.8317L42.4952 69.5555L26.2027 58.702C25.6145 58.3104 24.9089 58.1342 24.2056 58.2034C23.5023 58.2726 22.8446 58.583 22.344 59.0817L6.13721 73.5ZM36.7622 33.6875C36.7622 31.2508 35.7942 28.9139 34.0713 27.191C32.3483 25.468 30.0114 24.5 27.5747 24.5C25.138 24.5 22.8012 25.468 21.0782 27.191C19.3552 28.9139 18.3872 31.2508 18.3872 33.6875C18.3872 36.1242 19.3552 38.4611 21.0782 40.184C22.8012 41.907 25.138 42.875 27.5747 42.875C30.0114 42.875 32.3483 41.907 34.0713 40.184C35.7942 38.4611 36.7622 36.1242 36.7622 33.6875Z" fill="url(#paint0_linear_1046_223)"/>
</g>
<defs>
<linearGradient id="paint0_linear_1046_223" x1="49.0122" y1="6.125" x2="49.0122" y2="91.875" gradientUnits="userSpaceOnUse">
<stop stop-color="#ABDCFF"/>
<stop offset="1" stop-color="#D0EBFE"/>
</linearGradient>
<clipPath id="clip0_1046_223">
<rect width="98" height="98" fill="white"/>
</clipPath>
</defs>
</svg>
