<svg width="50" height="50" viewBox="0 0 50 50" fill="none" xmlns="http://www.w3.org/2000/svg">
<g clip-path="url(#clip0_1209_56)">
<circle cx="25" cy="25" r="25" fill="#1F2325"/>
<path fill-rule="evenodd" clip-rule="evenodd" d="M10 23.5075C10.0002 21.3496 10.5174 19.2232 11.5081 17.3063C12.4989 15.3893 13.9344 13.7376 15.6945 12.4894C17.4547 11.2412 19.4882 10.4328 21.6249 10.132C23.7616 9.83109 25.9392 10.0465 27.9756 10.7601C30.0119 11.4737 31.8477 12.6648 33.3293 14.2336C34.8108 15.8025 35.8949 17.7034 36.491 19.7773C37.087 21.8512 37.1776 24.0378 36.7552 26.1539C36.3327 28.27 35.4095 30.2541 34.0628 31.9401L39.5787 37.4562C39.8521 37.7393 40.0034 38.1185 39.9999 38.512C39.9965 38.9056 39.8387 39.2821 39.5604 39.5604C39.2821 39.8387 38.9057 39.9965 38.5121 39.9999C38.1186 40.0034 37.7394 39.8521 37.4564 39.5787L31.9405 34.0625C29.9531 35.6505 27.5576 36.6451 25.0299 36.9316C22.5022 37.2182 19.9449 36.7851 17.6524 35.6823C15.36 34.5795 13.4255 32.8517 12.0717 30.6978C10.7179 28.5439 9.99978 26.0515 10 23.5075ZM23.5083 13.0005C20.8586 12.9984 18.3058 13.9975 16.3615 15.7979C14.4173 17.5982 13.225 20.0667 13.0236 22.709C12.8222 25.3512 13.6266 27.9719 15.2756 30.0461C16.9246 32.1204 19.2964 33.4949 21.9158 33.8944C19.6074 33.2553 17.6027 31.8135 16.2622 29.8283C14.9218 27.8432 14.3335 25.4449 14.6033 23.0647C14.851 20.8641 15.9626 18.852 17.6937 17.471C19.4247 16.09 21.6335 15.4533 23.834 15.7008C24.745 15.8031 25.6269 16.0839 26.4293 16.527C27.2318 16.9702 27.939 17.5671 28.5108 18.2837C29.0825 19.0003 29.5075 19.8225 29.7614 20.7033C30.0154 21.5842 30.0933 22.5065 29.9908 23.4174C29.8166 24.9676 29.034 26.3852 27.815 27.3585C26.5961 28.3318 25.0405 28.7812 23.4903 28.6079C22.8359 28.5364 22.202 28.3364 21.6251 28.0194C21.0481 27.7024 20.5394 27.2747 20.128 26.7607C19.7167 26.2467 19.4108 25.6566 19.228 25.0241C19.0452 24.3917 18.989 23.7294 19.0626 23.0752C19.1911 21.9404 19.7649 20.9031 20.658 20.1912C21.551 19.4794 22.6902 19.1514 23.825 19.2792C25.2959 19.4443 26.3916 20.6841 26.5011 22.0861C26.6302 23.7447 25.383 25.0085 23.5083 25.0085C23.1988 25.0086 22.8968 24.9131 22.6437 24.735C22.3906 24.5568 22.1987 24.3048 22.0944 24.0133L22.0434 23.8347L22.0464 23.8617C22.0794 24.1589 22.1815 24.4471 22.3406 24.7023L22.4712 24.8854C22.8044 25.3012 23.2877 25.5669 23.822 25.6254C24.5819 25.7106 25.3445 25.4904 25.9421 25.0133C26.5397 24.5361 26.9232 23.8412 27.0084 23.0812C27.0669 22.562 27.0225 22.0363 26.8778 21.5343C26.733 21.0322 26.4908 20.5636 26.1649 20.1552C25.8391 19.7468 25.4359 19.4066 24.9785 19.1541C24.5212 18.9015 24.0185 18.7415 23.4993 18.6833C22.8011 18.6048 22.0944 18.6646 21.4193 18.8593C20.7443 19.0539 20.1142 19.3797 19.565 19.8179C19.0159 20.2561 18.5585 20.7982 18.2188 21.4133C17.8792 22.0283 17.6641 22.7042 17.5857 23.4024C17.481 24.3239 17.559 25.257 17.8152 26.1483C18.0714 27.0396 18.5007 27.8717 19.0786 28.597C19.6565 29.3223 20.3717 29.9266 21.1833 30.3753C21.9949 30.824 22.8869 31.1084 23.8085 31.2121C26.0989 31.4703 28.8231 30.5787 30.8508 28.9606C32.7029 27.4836 33.6981 25.5984 33.9787 23.0992C33.9847 23.0527 33.9922 23.0062 34.0012 22.9611C33.8613 20.2726 32.6947 17.7404 30.7422 15.887C28.7897 14.0336 26.2003 13.0003 23.5083 13.0005Z" fill="#B7E1FF"/>
</g>
<defs>
<clipPath id="clip0_1209_56">
<rect width="50" height="50" fill="white"/>
</clipPath>
</defs>
</svg>
