<svg width="13" height="15" viewBox="0 0 13 15" fill="none" xmlns="http://www.w3.org/2000/svg">
<path d="M10.8756 4.20837L10.3895 3.67376C9.46893 2.66104 8.25155 2.04035 6.95396 1.92215C5.65637 1.80395 4.36274 2.1959 3.30322 3.02826C2.24371 3.86062 1.48704 5.0794 1.16784 6.46776C0.848645 7.85611 0.987621 9.324 1.56004 10.6102C2.13247 11.8965 3.10121 12.9176 4.29392 13.4921C5.48662 14.0665 6.82592 14.1568 8.07353 13.7471C9.32113 13.3374 10.3961 12.4542 11.1072 11.2546C11.8184 10.055 12.1195 8.6168 11.957 7.19594M10.8756 4.20837L7.95851 4.20912M10.8756 4.20837V1" stroke="white" stroke-linecap="round" stroke-linejoin="round"/>
</svg>
