<svg width="38" height="38" viewBox="0 0 38 38" fill="none" xmlns="http://www.w3.org/2000/svg">
<path d="M7.91662 4.75001L7.91662 33.25C7.91753 33.5386 7.99711 33.8214 8.1468 34.0681C8.2965 34.3148 8.51063 34.516 8.76616 34.65C9.02169 34.784 9.30894 34.8458 9.59699 34.8288C9.88503 34.8117 10.163 34.7164 10.4009 34.5531L30.9842 20.3031C31.8376 19.7125 31.8376 18.2907 30.9842 17.6985L10.4009 3.44851C10.1635 3.28357 9.88539 3.18684 9.59686 3.16884C9.30834 3.15084 9.0204 3.21225 8.76433 3.34641C8.50826 3.48057 8.29385 3.68233 8.14439 3.92979C7.99494 4.17725 7.91617 4.46093 7.91662 4.75001Z" fill="white"/>
</svg>
