<svg width="40" height="40" viewBox="0 0 40 40" fill="none" xmlns="http://www.w3.org/2000/svg">
<path opacity="0.5" d="M15.2837 6.66676C15.628 5.69087 16.2666 4.84582 17.1114 4.24808C17.9561 3.65034 18.9655 3.32935 20.0004 3.32935C21.0352 3.32935 22.0446 3.65034 22.8894 4.24808C23.7341 4.84582 24.3727 5.69087 24.717 6.66676" stroke="#FF4773" stroke-width="2" stroke-linecap="round"/>
<path d="M34.1668 10H5.8335M31.3885 14.1667L30.6218 25.6667C30.3268 30.09 30.1802 32.3017 28.7385 33.65C27.2968 35 25.0802 35 20.6452 35H19.3552C14.9218 35 12.7052 35 11.2618 33.65C9.82016 32.3017 9.6735 30.09 9.3785 25.6667L8.61183 14.1667" stroke="#FF4773" stroke-width="2" stroke-linecap="round"/>
<path opacity="0.5" d="M15.8335 18.3335L16.6668 26.6668M24.1668 18.3335L23.3335 26.6668" stroke="#FF4773" stroke-width="2" stroke-linecap="round"/>
</svg>
