<svg width="50" height="50" viewBox="0 0 50 50" fill="none" xmlns="http://www.w3.org/2000/svg">
<g clip-path="url(#clip0_1213_194)">
<circle cx="25" cy="25" r="25" fill="white"/>
<path d="M20.409 35.3322V28.9129H13.99V34.3447C13.99 34.6326 14.0826 34.8692 14.2678 35.0544C14.4529 35.2396 14.6895 35.3322 14.9774 35.3322H20.409ZM28.4431 35.3322V29.5889L27.7671 28.9129H22.0145V35.3322H28.4431ZM20.409 27.3073V21.5543L19.733 20.8816H13.99V27.3089L20.409 27.3073ZM36.4676 27.3073V20.8784H30.0486V24.3899L32.9659 27.3073H36.4676ZM28.4431 19.2728V12.8535H22.0145V16.3537L24.9318 19.2728H28.4431ZM36.4676 19.2728V13.8409C36.4676 13.553 36.375 13.3164 36.1898 13.1313C36.0046 12.9461 35.7681 12.8535 35.4802 12.8535H30.0486V19.2728H36.4676ZM38.0731 32.4148L16.9073 11.2479H35.4802C36.2187 11.2479 36.8352 11.4957 37.3297 11.9913C37.8253 12.4858 38.0731 13.1024 38.0731 13.8409V32.4148ZM14.9774 36.9378C14.2389 36.9378 13.6223 36.6905 13.1278 36.196C12.6323 35.7004 12.3845 35.0833 12.3845 34.3447V11.2479L38.0731 36.9378H14.9774ZM39.8553 41L9 10.1384L10.1367 9L41 39.8648L39.8553 41Z" fill="#6590FF"/>
</g>
<defs>
<clipPath id="clip0_1213_194">
<rect width="50" height="50" fill="white"/>
</clipPath>
</defs>
</svg>
