<svg width="50" height="50" viewBox="0 0 50 50" fill="none" xmlns="http://www.w3.org/2000/svg">
<g clip-path="url(#clip0_1209_50)">
<circle cx="25" cy="25" r="25" fill="white"/>
<path d="M22.5504 9.44124C22.6105 9.12477 22.5424 8.79739 22.3612 8.53111C22.1799 8.26483 21.9003 8.08146 21.5838 8.02134C21.2673 7.96123 20.94 8.02929 20.6737 8.21055C20.4074 8.39182 20.224 8.67144 20.1639 8.98791L18.5141 17.7129L10.8333 17.7145C10.5113 17.7145 10.2024 17.8424 9.9747 18.0701C9.74698 18.2979 9.61905 18.6067 9.61905 18.9288C9.61905 19.2508 9.74698 19.5597 9.9747 19.7874C10.2024 20.0151 10.5113 20.143 10.8333 20.143L18.0543 20.1398L16.5227 28.235L9.21429 28.2382C8.89224 28.2382 8.58338 28.3661 8.35566 28.5939C8.12793 28.8216 8 29.1304 8 29.4525C8 29.7745 8.12793 30.0834 8.35566 30.3111C8.58338 30.5388 8.89224 30.6668 9.21429 30.6668L16.0629 30.6635L14.4972 38.9465C14.4669 39.1035 14.468 39.2649 14.5002 39.4215C14.5325 39.5781 14.5953 39.7268 14.6852 39.8591C14.7751 39.9913 14.8902 40.1045 15.0239 40.1922C15.1576 40.2798 15.3074 40.3402 15.4645 40.3698C15.6216 40.3995 15.783 40.3978 15.9395 40.3648C16.096 40.3319 16.2444 40.2684 16.3763 40.178C16.5081 40.0876 16.6208 39.972 16.7079 39.8379C16.795 39.7038 16.8547 39.5538 16.8837 39.3966L18.5351 30.6619H22.8548C23.0539 29.817 23.3585 29.0006 23.7614 28.2317L18.995 28.2334L20.5266 20.1382L29.3892 20.135L28.7513 23.5074C29.5869 23.1284 30.4688 22.8611 31.3742 22.7125L31.8599 20.1333L39.1667 20.1301C39.4887 20.1301 39.7976 20.0022 40.0253 19.7744C40.253 19.5467 40.381 19.2379 40.381 18.9158C40.381 18.5938 40.253 18.2849 40.0253 18.0572C39.7976 17.8295 39.4887 17.7015 39.1667 17.7015L32.3197 17.7048L33.8837 9.44124C33.9438 9.12477 33.8758 8.79739 33.6945 8.53111C33.5132 8.26483 33.2336 8.08146 32.9171 8.02134C32.6007 7.96123 32.2733 8.02929 32.007 8.21055C31.7407 8.39182 31.5574 8.67144 31.4972 8.98791L29.849 17.7064L20.9864 17.7096L22.5504 9.44124ZM42 33.0953C42 35.457 41.0618 37.7219 39.3919 39.3919C37.7219 41.0618 35.4569 42 33.0952 42C30.7335 42 28.4686 41.0618 26.7986 39.3919C25.1287 37.7219 24.1905 35.457 24.1905 33.0953C24.1905 30.7336 25.1287 28.4687 26.7986 26.7988C28.4686 25.1288 30.7335 24.1906 33.0952 24.1906C35.4569 24.1906 37.7219 25.1288 39.3919 26.7988C41.0618 28.4687 42 30.7336 42 33.0953ZM30.4303 29.2857C30.2785 29.1337 30.0725 29.0482 29.8577 29.0481C29.6429 29.0479 29.4368 29.1331 29.2848 29.2849C29.1328 29.4367 29.0473 29.6427 29.0472 29.8575C29.047 30.0723 29.1322 30.2784 29.284 30.4304L31.9506 33.0953L29.284 35.7619C29.2088 35.8371 29.1492 35.9265 29.1086 36.0248C29.068 36.1231 29.0471 36.2284 29.0472 36.3348C29.0472 36.4411 29.0683 36.5464 29.109 36.6447C29.1498 36.7429 29.2095 36.8322 29.2848 36.9073C29.3601 36.9825 29.4494 37.0421 29.5477 37.0827C29.646 37.1234 29.7513 37.1442 29.8577 37.1442C29.9641 37.1441 30.0694 37.1231 30.1676 37.0823C30.2659 37.0415 30.3551 36.9818 30.4303 36.9065L33.0952 34.24L35.7602 36.9065C35.912 37.0585 36.1179 37.144 36.3328 37.1442C36.5476 37.1443 36.7537 37.0591 36.9057 36.9073C37.0577 36.7555 37.1432 36.5496 37.1433 36.3348C37.1435 36.1199 37.0583 35.9139 36.9065 35.7619L34.2399 33.0953L36.9065 30.4304C37.0583 30.2784 37.1435 30.0723 37.1433 29.8575C37.1432 29.6427 37.0577 29.4367 36.9057 29.2849C36.7537 29.1331 36.5476 29.0479 36.3328 29.0481C36.1179 29.0482 35.912 29.1337 35.7602 29.2857L33.0952 31.9507L30.4303 29.2857Z" fill="#6590FF"/>
</g>
<defs>
<clipPath id="clip0_1209_50">
<rect width="50" height="50" fill="white"/>
</clipPath>
</defs>
</svg>
