<svg width="48" height="48" viewBox="0 0 48 48" fill="none" xmlns="http://www.w3.org/2000/svg">
<g id="solar:restart-linear">
<path id="Vector" d="M36.979 15.236L35.565 13.822C32.8869 11.1434 29.3454 9.50169 25.5706 9.18906C21.7958 8.87642 18.0325 9.91311 14.9503 12.1147C11.8681 14.3162 9.66685 17.5399 8.73827 21.212C7.80969 24.8841 8.21399 28.7666 9.87922 32.1687C11.5445 35.5707 14.3626 38.2717 17.8323 39.791C21.302 41.3103 25.1982 41.5493 28.8276 40.4657C32.457 39.382 35.5842 37.0459 37.6529 33.873C39.7216 30.7001 40.5976 26.8961 40.125 23.138M36.979 15.236L28.493 15.238M36.979 15.236V6.75" stroke="#6590FF" stroke-width="4" stroke-linecap="round" stroke-linejoin="round"/>
</g>
</svg>
