<svg width="50" height="50" viewBox="0 0 50 50" fill="none" xmlns="http://www.w3.org/2000/svg">
<g clip-path="url(#clip0_1209_63)">
<circle cx="25" cy="25" r="25" fill="#0B0301"/>
<path d="M11.1739 24.0659L7.47708 20.4956C7.1472 20.177 6.98839 19.8044 7.00066 19.3778C7.01429 18.9526 7.18605 18.5807 7.51593 18.2621L11.1739 14.7312C11.5038 14.4113 11.8889 14.2513 12.3292 14.2513C12.7695 14.2513 13.1553 14.4113 13.4865 14.7312L17.1425 18.2621C17.4724 18.5807 17.6373 18.9526 17.6373 19.3778C17.6373 19.8044 17.4724 20.177 17.1425 20.4956L13.4865 24.0264C13.1553 24.3464 12.7695 24.5122 12.3292 24.5241C11.8889 24.5372 11.5038 24.3845 11.1739 24.0659ZM22.2379 43C21.7704 43 21.3785 42.8473 21.0622 42.5419C20.746 42.2364 20.5878 41.8573 20.5878 41.4044V33.924C18.783 33.7884 16.9973 33.6027 15.2307 33.3671C13.4627 33.1301 11.6947 32.826 9.92665 32.4547C9.6104 32.3731 9.34459 32.2184 9.12921 31.9907C8.91384 31.7629 8.85318 31.5023 8.94723 31.2087C9.03993 30.9151 9.226 30.6998 9.50544 30.5629C9.78352 30.426 10.0814 30.3984 10.399 30.48C12.8077 31.0132 15.2382 31.3917 17.6905 31.6155C20.1414 31.838 22.6012 31.9492 25.0699 31.9492C27.5371 31.9492 29.9976 31.8373 32.4513 31.6135C34.9022 31.391 37.332 31.0132 39.7407 30.48C40.0583 30.3984 40.3569 30.4247 40.6363 30.559C40.9158 30.6933 41.1011 30.9039 41.1925 31.1909C41.2838 31.4963 41.2225 31.7629 41.0084 31.9907C40.7944 32.2184 40.5286 32.3731 40.211 32.4547C38.4444 32.826 36.677 33.1301 34.909 33.3671C33.1424 33.6041 31.3567 33.7897 29.5519 33.924V41.4044C29.5519 41.8573 29.3938 42.2364 29.0775 42.5419C28.7613 42.8473 28.3693 43 27.9018 43H22.2379ZM25.0699 16.1136C23.7585 16.1136 22.6441 15.6705 21.7267 14.7845C20.8093 13.8972 20.3506 12.821 20.3506 11.5558C20.3506 10.2893 20.8093 9.21306 21.7267 8.32705C22.6441 7.44103 23.7585 6.99869 25.0699 7C26.3812 7.00132 27.4956 7.44433 28.413 8.32902C29.3304 9.21503 29.7891 10.2913 29.7891 11.5578C29.7891 12.8229 29.3304 13.8992 28.413 14.7865C27.4956 15.6725 26.3812 16.1136 25.0699 16.1136ZM25.0699 28.76C24.1184 28.76 23.3039 28.4328 22.6264 27.7785C21.9489 27.1242 21.6102 26.3376 21.6102 25.4187C21.6102 24.4997 21.9489 23.7131 22.6264 23.0588C23.3039 22.4045 24.1184 22.0773 25.0699 22.0773C26.0213 22.0773 26.8358 22.4045 27.5133 23.0588C28.1908 23.7131 28.5295 24.4997 28.5295 25.4187C28.5295 26.3376 28.1908 27.1242 27.5133 27.7785C26.8358 28.4328 26.0213 28.76 25.0699 28.76ZM34.7945 24.1272L33.032 21.165C32.8875 20.928 32.8153 20.6647 32.8153 20.3751C32.8153 20.0855 32.8875 19.8176 33.032 19.5714L34.7945 16.6092C34.939 16.3551 35.136 16.159 35.3855 16.0207C35.6349 15.8812 35.9123 15.8114 36.2177 15.8114H39.5996C39.905 15.8114 40.1824 15.8812 40.4318 16.0207C40.6813 16.159 40.8783 16.3551 41.0228 16.6092L42.7833 19.5714C42.9278 19.8083 43 20.0716 43 20.3613C43 20.6509 42.9278 20.9188 42.7833 21.165L41.0228 24.1272C40.8783 24.3812 40.6806 24.5774 40.4298 24.7156C40.1817 24.8552 39.905 24.925 39.5996 24.925H36.2177C35.9123 24.925 35.6349 24.8552 35.3855 24.7156C35.136 24.5774 34.9384 24.3812 34.7925 24.1272" fill="#AF0C04"/>
</g>
<defs>
<clipPath id="clip0_1209_63">
<rect width="50" height="50" fill="white"/>
</clipPath>
</defs>
</svg>
